<?xml version="1.0" encoding="iso-8859-1"?>
<!-- Generator: Adobe Illustrator 19.0.0, SVG Export Plug-In . SVG Version: 6.00 Build 0)  -->
<svg version="1.1" id="Capa_1" xmlns="http://www.w3.org/2000/svg" xmlns:xlink="http://www.w3.org/1999/xlink" x="0px" y="0px"
	 viewBox="0 0 512 512" style="enable-background:new 0 0 512 512;" xml:space="preserve">
<path style="fill:#FEDB41;" d="M482,240c0,32.999-13.5,62.999-35.099,84.899C424.999,346.5,394.999,361,362,361
	c-66.301,0-121-54.701-121-121c0-33.001,13.5-63.001,35.099-84.901C298.001,133.5,329.001,120,362,120s62.999,13.5,84.901,35.099
	C468.5,176.999,482,206.999,482,240z"/>
<path style="fill:#FEA832;" d="M452,240c0,24.899-10.201,47.399-26.4,63.6C409.401,319.799,386.901,330,362,330
	c-49.799,0-91-40.201-91-90c0-24.901,11.201-47.401,27.4-63.6c16.199-16.201,38.699-26.4,63.6-26.4s47.401,10.199,63.6,26.4
	C441.799,192.599,452,215.099,452,240z"/>
<path style="fill:#FEDB41;" d="M422,240c0,16.5-6.599,31.5-17.701,42.299C393.5,293.399,378.5,300,362,300
	c-32.999,0-60-27.001-60-60c0-16.5,6.599-31.5,17.701-42.301C330.5,186.599,345.5,180,362,180s31.5,6.599,42.299,17.699
	C415.401,208.5,422,223.5,422,240z"/>
<path style="fill:#FEA832;" d="M392,240c0,16.5-13.5,30-30,30s-30-13.5-30-30s13.5-30,30-30S392,223.5,392,240z"/>
<path style="fill:#FCBF29;" d="M482,240c0,32.999-13.5,62.999-35.099,84.899C424.999,346.5,394.999,361,362,361V120
	c32.999,0,62.999,13.5,84.901,35.099C468.5,176.999,482,206.999,482,240z"/>
<path style="fill:#FE9923;" d="M452,240c0,24.899-10.201,47.399-26.4,63.6C409.401,319.799,386.901,330,362,330V150
	c24.901,0,47.401,10.199,63.6,26.4C441.799,192.599,452,215.099,452,240z"/>
<path style="fill:#FCBF29;" d="M422,240c0,16.5-6.599,31.5-17.701,42.299C393.5,293.399,378.5,300,362,300V180
	c16.5,0,31.5,6.599,42.299,17.699C415.401,208.5,422,223.5,422,240z"/>
<path style="fill:#FE9923;" d="M392,240c0,16.5-13.5,30-30,30v-60C378.5,210,392,223.5,392,240z"/>
<path style="fill:#BF6015;" d="M75,90H15C6.709,90,0,83.291,0,75s6.709-15,15-15h60c8.291,0,15,6.709,15,15S83.291,90,75,90z"/>
<path style="fill:#994C10;" d="M497,90H195c-8.291,0-15-6.709-15-15s6.709-15,15-15h302c8.291,0,15,6.709,15,15S505.291,90,497,90z"
	/>
<path style="fill:#FEA832;" d="M105,270c-8.291,0-15-6.709-15-15V15c0-8.291,6.709-15,15-15s15,6.709,15,15v240
	C120,263.291,113.291,270,105,270z"/>
<g>
	<path style="fill:#FEDB41;" d="M75,270c-8.291,0-15-6.709-15-15V15c0-8.291,6.709-15,15-15s15,6.709,15,15v240
		C90,263.291,83.291,270,75,270z"/>
	<path style="fill:#FEDB41;" d="M150,15v240c0,8.399-6.599,15-15,15s-15-6.601-15-15V15c0-8.401,6.599-15,15-15S150,6.599,150,15z"
		/>
</g>
<path style="fill:#FE9923;" d="M165,270c-8.291,0-15-6.709-15-15V15c0-8.291,6.709-15,15-15s15,6.709,15,15v240
	C180,263.291,173.291,270,165,270z"/>
<path style="fill:#FCBF29;" d="M195,270c-8.291,0-15-6.709-15-15V15c0-8.291,6.709-15,15-15s15,6.709,15,15v240
	C210,263.291,203.291,270,195,270z"/>
<path style="fill:#BF6015;" d="M512,15c0,8.401-6.599,15-15,15H15C6.599,30,0,23.401,0,15S6.599,0,15,0h482
	C505.401,0,512,6.599,512,15z"/>
<path style="fill:#FCBF29;" d="M150,15v240c0,8.399-6.599,15-15,15V0C143.401,0,150,6.599,150,15z"/>
<g>
	<path style="fill:#994C10;" d="M512,15c0,8.401-6.599,15-15,15H135V0h362C505.401,0,512,6.599,512,15z"/>
	<path style="fill:#994C10;" d="M377,435.5V467c0,24.901-20.099,45-45,45H180c-24.901,0-45-20.099-45-45v-31.5
		c0-8.401,6.599-15,15-15h212C370.401,420.5,377,427.099,377,435.5z"/>
</g>
<path style="fill:#713708;" d="M377,435.5V467c0,24.901-20.099,45-45,45h-76v-91.5h106C370.401,420.5,377,427.099,377,435.5z"/>
<path style="fill:#BF6015;" d="M512,255v22.8c0,7.5-0.601,15-1.5,22.2l-36.601,30H38.101L1.5,300C0.601,292.8,0,285.3,0,277.8V255
	c0-8.401,6.599-15,15-15h482C505.401,240,512,246.599,512,255z"/>
<path style="fill:#994C10;" d="M512,255v22.8c0,7.5-0.601,15-1.5,22.2l-36.601,30H256v-90h241C505.401,240,512,246.599,512,255z"/>
<path style="fill:#FD4E26;" d="M510.5,300c-1.5,10.201-3.6,20.4-6.601,30C481.7,399.6,416.6,452,339.8,452H172.2
	C95.4,452,30.3,399.6,8.101,330C5.1,320.4,3,310.201,1.5,300H510.5z"/>
<path style="fill:#FD3018;" d="M510.5,300c-1.5,10.201-3.6,20.4-6.601,30C481.7,399.6,416.6,452,339.8,452H256V300H510.5z"/>
<g>
</g>
<g>
</g>
<g>
</g>
<g>
</g>
<g>
</g>
<g>
</g>
<g>
</g>
<g>
</g>
<g>
</g>
<g>
</g>
<g>
</g>
<g>
</g>
<g>
</g>
<g>
</g>
<g>
</g>
</svg>
